<?xml version="1.0" encoding="iso-8859-1"?>
<!-- Uploaded to: SVG Repo, www.svgrepo.com, Generator: SVG Repo Mixer Tools -->
<svg height="800px" width="800px" version="1.1" id="Layer_1" xmlns="http://www.w3.org/2000/svg" xmlns:xlink="http://www.w3.org/1999/xlink" 
	 viewBox="0 0 392.582 392.582" xml:space="preserve">
<path style="fill:#56ACE0;" d="M196.267,88.655c-64.388,0-125.349,38.141-172.347,107.701
	c46.933,69.56,107.895,107.701,172.347,107.701s125.349-38.141,172.347-107.701C321.616,126.796,260.655,88.655,196.267,88.655z"/>
<path style="fill:#194F82;" d="M390.788,190.408C339.2,110.764,270.158,66.739,196.267,66.739S53.333,110.634,1.745,190.408
	c-2.327,3.62-2.327,8.275,0,11.83c51.653,79.709,120.695,123.604,194.521,123.604c73.891,0,142.933-43.895,194.521-123.669
	C393.18,198.683,393.18,194.028,390.788,190.408z M196.267,304.057c-64.388,0-125.349-38.141-172.347-107.701
	c46.933-69.56,107.895-107.701,172.347-107.701s125.349,38.141,172.347,107.701C321.616,265.915,260.655,304.057,196.267,304.057z"
	/>
<path style="fill:#FFFFFF;" d="M196.267,125.051c-3.62,0-7.176,0.323-10.731,0.84c3.556,6.4,5.56,13.77,5.56,21.333
	c0,24.242-19.717,43.96-43.96,43.96c-7.564,0-14.933-1.939-21.333-5.56c-0.517,3.556-0.84,7.111-0.84,10.731
	c0,39.305,32,71.305,71.305,71.305s71.305-32,71.305-71.305S235.572,125.051,196.267,125.051z"/>
<path style="fill:#194F82;" d="M196.267,103.265c-11.766,0-23.337,2.263-34.392,6.659c-3.685,1.487-6.335,4.848-6.788,8.857
	c-0.453,4.008,1.293,7.887,4.655,10.214c6.012,4.202,9.568,10.99,9.568,18.23c0,12.218-9.891,22.109-22.109,22.109
	c-7.24,0-14.093-3.556-18.23-9.568c-2.327-3.297-6.271-5.042-10.214-4.655c-4.008,0.453-7.434,3.103-8.857,6.788
	c-4.396,11.055-6.659,22.626-6.659,34.392c0,51.329,41.826,93.091,93.091,93.091s93.091-41.697,93.091-93.091
	S247.596,103.265,196.267,103.265z M196.267,267.661c-39.305,0-71.305-32-71.305-71.305c0-3.62,0.323-7.176,0.84-10.731
	c6.4,3.556,13.77,5.56,21.333,5.56c24.242,0,43.96-19.717,43.96-43.96c0-7.564-1.939-14.933-5.56-21.333
	c3.556-0.517,7.111-0.84,10.731-0.84c39.305,0,71.305,32,71.305,71.305S235.572,267.661,196.267,267.661z"/>
<path style="fill:#FFC10D;" d="M196.137,245.81c-21.463,0-39.822-13.77-46.675-32.905c34.263-1.293,61.867-28.897,63.224-63.224
	c19.135,6.788,32.905,25.212,32.905,46.675C245.592,223.636,223.418,245.81,196.137,245.81z"/>
</svg>