<?xml version="1.0" encoding="utf-8"?><!-- Uploaded to: SVG Repo, www.svgrepo.com, Generator: SVG Repo Mixer Tools -->
<svg fill="#000000" width="800px" height="800px" viewBox="0 0 24 24" id="wind-alt" data-name="Flat Color" xmlns="http://www.w3.org/2000/svg" class="icon flat-color"><path id="secondary" d="M16,13H3a1,1,0,0,1,0-2H16a1,1,0,0,1,0,2Z" style="fill: rgb(44, 169, 188);"></path><path id="primary" d="M12.5,9H3A1,1,0,0,1,3,7h9.5a1.5,1.5,0,0,0,0-3,1,1,0,0,1,0-2,3.5,3.5,0,0,1,0,7ZM21,18.5A3.5,3.5,0,0,0,17.5,15H3a1,1,0,0,0,0,2H17.5a1.5,1.5,0,0,1,0,3,1,1,0,0,0,0,2A3.5,3.5,0,0,0,21,18.5Z" style="fill: rgb(0, 0, 0);"></path></svg>